ffmpeg started on 2025-05-12 at 16:33:38
Report written to "D:\Convert\FFMetrics\reports\psnr_report-6.txt"
Log level: 32
Command line:
ffmpeg -hide_banner -nostdin -i "G:\\\xc0\xed\xe8\xec\xe5\\\xce\xed\xe3\xee\xe8\xed\xe3\xe8\\!_35_\xcb\xe5\xf2\xee_2024\\DreamCast\\\xcc\xee\xff \xef\xee\xe4\xf0\xf3\xe3\xe0-\xee\xeb\xe5\xed\xe8\xf5\xe0, \xcd\xee\xea\xee\xf2\xe0\xed\\[DC] Shikanoko Nokonoko Koshitantan - 05_Telegram_HEVC.mkv" -i "G:\\\xc0\xed\xe8\xec\xe5\\\xce\xed\xe3\xee\xe8\xed\xe3\xe8\\!_35_\xcb\xe5\xf2\xee_2024\\DreamCast\\\xcc\xee\xff \xef\xee\xe4\xf0\xf3\xe3\xe0-\xee\xeb\xe5\xed\xe8\xf5\xe0, \xcd\xee\xea\xee\xf2\xe0\xed\\[DC] Shikanoko Nokonoko Koshitantan - 05_Telegram.mp4" -lavfi "[0:v]settb=AVTB,setpts=PTS-STARTPTS,format=pix_fmts=yuv420p10,fps=24000/1001,scale=1920:1080:flags=bicubic[main];[1:v]settb=AVTB,setpts=PTS-STARTPTS,format=pix_fmts=yuv420p,fps=24000/1001,scale=1920:1080:flags=bicubic[ref];[main][ref]psnr=eof_action=endall:stats_file='D\\:/Convert/FFMetrics/logs/psnr_logfile-6.txt'" -f null -
Input #0, matroska,webm, from 'G:\Аниме\Онгоинги\!_35_Лето_2024\DreamCast\Моя подруга-олениха, Нокотан\[DC] Shikanoko Nokonoko Koshitantan - 05_Telegram_HEVC.mkv':
  Metadata:
    COMPATIBLE_BRANDS: isomiso2avc1mp41
    MAJOR_BRAND     : isom
    MINOR_VERSION   : 512
    ENCODER         : Lavf61.7.100
  Duration: 00:23:40.12, start: -0.021000, bitrate: 1608 kb/s
  Stream #0:0: Video: hevc (Main 10), yuv420p10le(tv, bt709, progressive), 1920x1080 [SAR 1:1 DAR 16:9], 23.98 fps, 23.98 tbr, 1k tbn (default)
      Metadata:
        HANDLER_NAME    : VideoHandler
        VENDOR_ID       : [0][0][0][0]
        ENCODER         : Lavc61.19.100 libx265
        BPS             : 1410998
        DURATION        : 00:23:40.001708333
        NUMBER_OF_FRAMES: 34046
        NUMBER_OF_BYTES : 250452325
        _STATISTICS_WRITING_APP: mkvpropedit v66.0.0 ('Josie') 64-bit
        _STATISTICS_WRITING_DATE_UTC: 2025-05-08 10:39:16
        _STATISTICS_TAGS: BPS DURATION NUMBER_OF_FRAMES NUMBER_OF_BYTES
  Stream #0:1: Audio: aac (LC), 48000 Hz, stereo, fltp (default)
      Metadata:
        HANDLER_NAME    : SoundHandler
        VENDOR_ID       : [0][0][0][0]
        ENCODER         : Lavc61.19.100 aac
        BPS             : 193643
        DURATION        : 00:23:40.117000000
        NUMBER_OF_FRAMES: 66569
        NUMBER_OF_BYTES : 34374492
        _STATISTICS_WRITING_APP: mkvpropedit v66.0.0 ('Josie') 64-bit
        _STATISTICS_WRITING_DATE_UTC: 2025-05-08 10:39:16
        _STATISTICS_TAGS: BPS DURATION NUMBER_OF_FRAMES NUMBER_OF_BYTES
Input #1, mov,mp4,m4a,3gp,3g2,mj2, from 'G:\Аниме\Онгоинги\!_35_Лето_2024\DreamCast\Моя подруга-олениха, Нокотан\[DC] Shikanoko Nokonoko Koshitantan - 05_Telegram.mp4':
  Metadata:
    major_brand     : isom
    minor_version   : 512
    compatible_brands: isomiso2avc1mp41
    encoder         : Lavf61.1.100
  Duration: 00:23:40.07, start: 0.000000, bitrate: 3597 kb/s
  Stream #1:0[0x1](und): Video: h264 (High) (avc1 / 0x31637661), yuv420p(tv, bt709, progressive), 1920x1080 [SAR 1:1 DAR 16:9], 3450 kb/s, 23.98 fps, 23.98 tbr, 24k tbn (default)
      Metadata:
        handler_name    : VideoHandler
        vendor_id       : [0][0][0][0]
        encoder         : Lavc61.3.100 h264_qsv
  Stream #1:1[0x2](und): Audio: aac (HE-AACv2) (mp4a / 0x6134706D), 48000 Hz, stereo, fltp, 144 kb/s (default)
      Metadata:
        handler_name    : SoundHandler
        vendor_id       : [0][0][0][0]
Stream mapping:
  Stream #0:0 (hevc) -> settb:default
  Stream #1:0 (h264) -> settb:default
  psnr:default -> Stream #0:0 (wrapped_avframe)
  Stream #0:1 -> #0:1 (aac (native) -> pcm_s16le (native))
Output #0, null, to 'pipe:':
  Metadata:
    COMPATIBLE_BRANDS: isomiso2avc1mp41
    MAJOR_BRAND     : isom
    MINOR_VERSION   : 512
    encoder         : Lavf61.7.100
  Stream #0:0: Video: wrapped_avframe, yuv420p10le(tv, bt709, progressive), 1920x1080 [SAR 1:1 DAR 16:9], q=2-31, 200 kb/s, 23.98 fps, 23.98 tbn
      Metadata:
        encoder         : Lavc61.19.100 wrapped_avframe
  Stream #0:1: Audio: pcm_s16le, 48000 Hz, stereo, s16, 1536 kb/s (default)
      Metadata:
        HANDLER_NAME    : SoundHandler
        VENDOR_ID       : [0][0][0][0]
        _STATISTICS_TAGS: BPS DURATION NUMBER_OF_FRAMES NUMBER_OF_BYTES
        BPS             : 193643
        DURATION        : 00:23:40.117000000
        NUMBER_OF_FRAMES: 66569
        NUMBER_OF_BYTES : 34374492
        _STATISTICS_WRITING_APP: mkvpropedit v66.0.0 ('Josie') 64-bit
        _STATISTICS_WRITING_DATE_UTC: 2025-05-08 10:39:16
        encoder         : Lavc61.19.100 pcm_s16le
frame=  169 fps=0.0 q=-0.0 size=N/A time=00:00:07.04 bitrate=N/A speed=13.5x    frame=  381 fps=365 q=-0.0 size=N/A time=00:00:15.89 bitrate=N/A speed=15.2x    frame=  624 fps=402 q=-0.0 size=N/A time=00:00:26.02 bitrate=N/A speed=16.8x    frame=  864 fps=417 q=-0.0 size=N/A time=00:00:36.03 bitrate=N/A speed=17.4x    frame= 1018 fps=395 q=-0.0 size=N/A time=00:00:42.45 bitrate=N/A speed=16.5x    frame= 1195 fps=385 q=-0.0 size=N/A time=00:00:49.84 bitrate=N/A speed=  16x    frame= 1399 fps=385 q=-0.0 size=N/A time=00:00:58.34 bitrate=N/A speed=16.1x    frame= 1606 fps=387 q=-0.0 size=N/A time=00:01:06.98 bitrate=N/A speed=16.1x    frame= 1791 fps=383 q=-0.0 size=N/A time=00:01:14.69 bitrate=N/A speed=  16x    frame= 1979 fps=381 q=-0.0 size=N/A time=00:01:22.54 bitrate=N/A speed=15.9x    frame= 2157 fps=378 q=-0.0 size=N/A time=00:01:29.96 bitrate=N/A speed=15.8x    frame= 2352 fps=378 q=-0.0 size=N/A time=00:01:38.09 bitrate=N/A speed=15.7x    frame= 2544 fps=378 q=-0.0 size=N/A time=00:01:46.10 bitrate=N/A speed=15.7x    frame= 2704 fps=372 q=-0.0 size=N/A time=00:01:52.77 bitrate=N/A speed=15.5x    frame= 2870 fps=370 q=-0.0 size=N/A time=00:01:59.70 bitrate=N/A speed=15.4x    frame= 3083 fps=372 q=-0.0 size=N/A time=00:02:08.58 bitrate=N/A speed=15.5x    frame= 3345 fps=380 q=-0.0 size=N/A time=00:02:19.51 bitrate=N/A speed=15.9x    frame= 3565 fps=382 q=-0.0 size=N/A time=00:02:28.69 bitrate=N/A speed=15.9x    frame= 3798 fps=386 q=-0.0 size=N/A time=00:02:38.40 bitrate=N/A speed=16.1x    frame= 4001 fps=387 q=-0.0 size=N/A time=00:02:46.87 bitrate=N/A speed=16.1x    frame= 4205 fps=387 q=-0.0 size=N/A time=00:02:55.38 bitrate=N/A speed=16.1x    frame= 4407 fps=387 q=-0.0 size=N/A time=00:03:03.80 bitrate=N/A speed=16.1x    frame= 4613 fps=388 q=-0.0 size=N/A time=00:03:12.40 bitrate=N/A speed=16.2x    frame= 4864 fps=392 q=-0.0 size=N/A time=00:03:22.86 bitrate=N/A speed=16.3x    frame= 5127 fps=396 q=-0.0 size=N/A time=00:03:33.83 bitrate=N/A speed=16.5x    frame= 5372 fps=400 q=-0.0 size=N/A time=00:03:44.05 bitrate=N/A speed=16.7x    frame= 5632 fps=403 q=-0.0 size=N/A time=00:03:54.90 bitrate=N/A speed=16.8x    frame= 5895 fps=407 q=-0.0 size=N/A time=00:04:05.87 bitrate=N/A speed=  17x    frame= 6126 fps=409 q=-0.0 size=N/A time=00:04:15.50 bitrate=N/A speed=  17x    frame= 6360 fps=410 q=-0.0 size=N/A time=00:04:25.26 bitrate=N/A speed=17.1x    frame= 6645 fps=415 q=-0.0 size=N/A time=00:04:37.15 bitrate=N/A speed=17.3x    frame= 6904 fps=417 q=-0.0 size=N/A time=00:04:47.95 bitrate=N/A speed=17.4x    frame= 7062 fps=414 q=-0.0 size=N/A time=00:04:54.54 bitrate=N/A speed=17.3x    frame= 7243 fps=412 q=-0.0 size=N/A time=00:05:02.09 bitrate=N/A speed=17.2x    frame= 7484 fps=414 q=-0.0 size=N/A time=00:05:12.14 bitrate=N/A speed=17.3x    frame= 7732 fps=416 q=-0.0 size=N/A time=00:05:22.48 bitrate=N/A speed=17.3x    frame= 7915 fps=414 q=-0.0 size=N/A time=00:05:30.12 bitrate=N/A speed=17.3x    frame= 8106 fps=413 q=-0.0 size=N/A time=00:05:38.08 bitrate=N/A speed=17.2x    frame= 8302 fps=412 q=-0.0 size=N/A time=00:05:46.26 bitrate=N/A speed=17.2x    frame= 8547 fps=414 q=-0.0 size=N/A time=00:05:56.48 bitrate=N/A speed=17.3x    frame= 8791 fps=415 q=-0.0 size=N/A time=00:06:06.65 bitrate=N/A speed=17.3x    frame= 9026 fps=416 q=-0.0 size=N/A time=00:06:16.45 bitrate=N/A speed=17.4x    frame= 9287 fps=418 q=-0.0 size=N/A time=00:06:27.34 bitrate=N/A speed=17.4x    frame= 9554 fps=420 q=-0.0 size=N/A time=00:06:38.48 bitrate=N/A speed=17.5x    frame= 9814 fps=422 q=-0.0 size=N/A time=00:06:49.32 bitrate=N/A speed=17.6x    frame=10050 fps=423 q=-0.0 size=N/A time=00:06:59.16 bitrate=N/A speed=17.6x    frame=10262 fps=423 q=-0.0 size=N/A time=00:07:08.01 bitrate=N/A speed=17.6x    frame=10437 fps=421 q=-0.0 size=N/A time=00:07:15.30 bitrate=N/A speed=17.6x    frame=10645 fps=421 q=-0.0 size=N/A time=00:07:23.98 bitrate=N/A speed=17.5x    frame=10858 fps=420 q=-0.0 size=N/A time=00:07:32.86 bitrate=N/A speed=17.5x    frame=11054 fps=420 q=-0.0 size=N/A time=00:07:41.04 bitrate=N/A speed=17.5x    frame=11256 fps=419 q=-0.0 size=N/A time=00:07:49.46 bitrate=N/A speed=17.5x    frame=11446 fps=418 q=-0.0 size=N/A time=00:07:57.39 bitrate=N/A speed=17.4x    frame=11673 fps=419 q=-0.0 size=N/A time=00:08:06.86 bitrate=N/A speed=17.5x    frame=11909 fps=419 q=-0.0 size=N/A time=00:08:16.70 bitrate=N/A speed=17.5x    frame=12132 fps=420 q=-0.0 size=N/A time=00:08:26.00 bitrate=N/A speed=17.5x    frame=12351 fps=420 q=-0.0 size=N/A time=00:08:35.13 bitrate=N/A speed=17.5x    frame=12614 fps=421 q=-0.0 size=N/A time=00:08:46.10 bitrate=N/A speed=17.6x    frame=12866 fps=422 q=-0.0 size=N/A time=00:08:56.61 bitrate=N/A speed=17.6x    frame=13114 fps=423 q=-0.0 size=N/A time=00:09:06.96 bitrate=N/A speed=17.7x    frame=13349 fps=424 q=-0.0 size=N/A time=00:09:16.76 bitrate=N/A speed=17.7x    frame=13605 fps=425 q=-0.0 size=N/A time=00:09:27.44 bitrate=N/A speed=17.7x    frame=13872 fps=426 q=-0.0 size=N/A time=00:09:38.57 bitrate=N/A speed=17.8x    frame=14114 fps=427 q=-0.0 size=N/A time=00:09:48.67 bitrate=N/A speed=17.8x    frame=14354 fps=428 q=-0.0 size=N/A time=00:09:58.68 bitrate=N/A speed=17.8x    frame=14596 fps=428 q=-0.0 size=N/A time=00:10:08.77 bitrate=N/A speed=17.9x    frame=14837 fps=429 q=-0.0 size=N/A time=00:10:18.82 bitrate=N/A speed=17.9x    frame=15092 fps=430 q=-0.0 size=N/A time=00:10:29.46 bitrate=N/A speed=17.9x    frame=15356 fps=431 q=-0.0 size=N/A time=00:10:40.47 bitrate=N/A speed=  18x    frame=15602 fps=432 q=-0.0 size=N/A time=00:10:50.73 bitrate=N/A speed=  18x    frame=15858 fps=433 q=-0.0 size=N/A time=00:11:01.41 bitrate=N/A speed=  18x    frame=16081 fps=433 q=-0.0 size=N/A time=00:11:10.71 bitrate=N/A speed=  18x    frame=16269 fps=432 q=-0.0 size=N/A time=00:11:18.55 bitrate=N/A speed=  18x    frame=16485 fps=431 q=-0.0 size=N/A time=00:11:27.56 bitrate=N/A speed=  18x    frame=16714 fps=432 q=-0.0 size=N/A time=00:11:37.11 bitrate=N/A speed=  18x    frame=16919 fps=431 q=-0.0 size=N/A time=00:11:45.66 bitrate=N/A speed=  18x    frame=17066 fps=429 q=-0.0 size=N/A time=00:11:51.79 bitrate=N/A speed=17.9x    frame=17272 fps=429 q=-0.0 size=N/A time=00:12:00.38 bitrate=N/A speed=17.9x    frame=17465 fps=428 q=-0.0 size=N/A time=00:12:08.43 bitrate=N/A speed=17.9x    frame=17690 fps=428 q=-0.0 size=N/A time=00:12:17.82 bitrate=N/A speed=17.9x    frame=17880 fps=427 q=-0.0 size=N/A time=00:12:25.74 bitrate=N/A speed=17.8x    frame=18127 fps=428 q=-0.0 size=N/A time=00:12:36.04 bitrate=N/A speed=17.9x    frame=18358 fps=428 q=-0.0 size=N/A time=00:12:45.68 bitrate=N/A speed=17.9x    frame=18615 fps=429 q=-0.0 size=N/A time=00:12:56.40 bitrate=N/A speed=17.9x    frame=18844 fps=429 q=-0.0 size=N/A time=00:13:05.95 bitrate=N/A speed=17.9x    frame=19057 fps=429 q=-0.0 size=N/A time=00:13:14.83 bitrate=N/A speed=17.9x    frame=19326 fps=430 q=-0.0 size=N/A time=00:13:26.05 bitrate=N/A speed=17.9x    frame=19545 fps=430 q=-0.0 size=N/A time=00:13:35.18 bitrate=N/A speed=17.9x    frame=19799 fps=431 q=-0.0 size=N/A time=00:13:45.78 bitrate=N/A speed=  18x    frame=20024 fps=431 q=-0.0 size=N/A time=00:13:55.16 bitrate=N/A speed=  18x    frame=20268 fps=431 q=-0.0 size=N/A time=00:14:05.34 bitrate=N/A speed=  18x    frame=20471 fps=431 q=-0.0 size=N/A time=00:14:13.81 bitrate=N/A speed=  18x    frame=20706 fps=431 q=-0.0 size=N/A time=00:14:23.61 bitrate=N/A speed=  18x    frame=20933 fps=431 q=-0.0 size=N/A time=00:14:33.08 bitrate=N/A speed=  18x    frame=21170 fps=432 q=-0.0 size=N/A time=00:14:42.96 bitrate=N/A speed=  18x    frame=21412 fps=432 q=-0.0 size=N/A time=00:14:53.05 bitrate=N/A speed=  18x    frame=21675 fps=433 q=-0.0 size=N/A time=00:15:04.02 bitrate=N/A speed=  18x    frame=21942 fps=434 q=-0.0 size=N/A time=00:15:15.16 bitrate=N/A speed=18.1x    frame=22182 fps=434 q=-0.0 size=N/A time=00:15:25.17 bitrate=N/A speed=18.1x    frame=22438 fps=435 q=-0.0 size=N/A time=00:15:35.85 bitrate=N/A speed=18.1x    frame=22601 fps=433 q=-0.0 size=N/A time=00:15:42.65 bitrate=N/A speed=18.1x    frame=22857 fps=434 q=-0.0 size=N/A time=00:15:53.32 bitrate=N/A speed=18.1x    frame=23104 fps=434 q=-0.0 size=N/A time=00:16:03.62 bitrate=N/A speed=18.1x    frame=23348 fps=435 q=-0.0 size=N/A time=00:16:13.80 bitrate=N/A speed=18.1x    frame=23591 fps=435 q=-0.0 size=N/A time=00:16:23.94 bitrate=N/A speed=18.1x    frame=23834 fps=436 q=-0.0 size=N/A time=00:16:34.07 bitrate=N/A speed=18.2x    frame=24061 fps=436 q=-0.0 size=N/A time=00:16:43.54 bitrate=N/A speed=18.2x    frame=24310 fps=436 q=-0.0 size=N/A time=00:16:53.97 bitrate=N/A speed=18.2x    frame=24577 fps=437 q=-0.0 size=N/A time=00:17:05.06 bitrate=N/A speed=18.2x    frame=24832 fps=437 q=-0.0 size=N/A time=00:17:15.70 bitrate=N/A speed=18.2x    frame=25071 fps=438 q=-0.0 size=N/A time=00:17:25.66 bitrate=N/A speed=18.2x    frame=25327 fps=438 q=-0.0 size=N/A time=00:17:36.34 bitrate=N/A speed=18.3x    frame=25592 fps=439 q=-0.0 size=N/A time=00:17:47.39 bitrate=N/A speed=18.3x    frame=25869 fps=440 q=-0.0 size=N/A time=00:17:58.95 bitrate=N/A speed=18.3x    frame=26143 fps=440 q=-0.0 size=N/A time=00:18:10.38 bitrate=N/A speed=18.4x    frame=26413 fps=441 q=-0.0 size=N/A time=00:18:21.64 bitrate=N/A speed=18.4x    frame=26683 fps=442 q=-0.0 size=N/A time=00:18:32.90 bitrate=N/A speed=18.4x    frame=26948 fps=442 q=-0.0 size=N/A time=00:18:43.95 bitrate=N/A speed=18.5x    frame=27177 fps=442 q=-0.0 size=N/A time=00:18:53.50 bitrate=N/A speed=18.5x    frame=27429 fps=443 q=-0.0 size=N/A time=00:19:04.01 bitrate=N/A speed=18.5x    frame=27636 fps=442 q=-0.0 size=N/A time=00:19:12.65 bitrate=N/A speed=18.5x    frame=27875 fps=443 q=-0.0 size=N/A time=00:19:22.61 bitrate=N/A speed=18.5x    frame=28086 fps=442 q=-0.0 size=N/A time=00:19:31.42 bitrate=N/A speed=18.4x    frame=28341 fps=443 q=-0.0 size=N/A time=00:19:42.05 bitrate=N/A speed=18.5x    frame=28619 fps=443 q=-0.0 size=N/A time=00:19:53.65 bitrate=N/A speed=18.5x    frame=28837 fps=443 q=-0.0 size=N/A time=00:20:02.74 bitrate=N/A speed=18.5x    frame=29094 fps=444 q=-0.0 size=N/A time=00:20:13.46 bitrate=N/A speed=18.5x    frame=29346 fps=444 q=-0.0 size=N/A time=00:20:23.97 bitrate=N/A speed=18.5x    frame=29614 fps=445 q=-0.0 size=N/A time=00:20:35.15 bitrate=N/A speed=18.5x    frame=29837 fps=444 q=-0.0 size=N/A time=00:20:44.45 bitrate=N/A speed=18.5x    frame=30090 fps=445 q=-0.0 size=N/A time=00:20:55.00 bitrate=N/A speed=18.6x    frame=30321 fps=445 q=-0.0 size=N/A time=00:21:04.63 bitrate=N/A speed=18.5x    frame=30586 fps=445 q=-0.0 size=N/A time=00:21:15.69 bitrate=N/A speed=18.6x    frame=30814 fps=445 q=-0.0 size=N/A time=00:21:25.20 bitrate=N/A speed=18.6x    frame=31033 fps=445 q=-0.0 size=N/A time=00:21:34.33 bitrate=N/A speed=18.6x    frame=31261 fps=445 q=-0.0 size=N/A time=00:21:43.84 bitrate=N/A speed=18.6x    frame=31461 fps=445 q=-0.0 size=N/A time=00:21:52.18 bitrate=N/A speed=18.5x    frame=31711 fps=445 q=-0.0 size=N/A time=00:22:02.61 bitrate=N/A speed=18.6x    frame=31927 fps=445 q=-0.0 size=N/A time=00:22:11.62 bitrate=N/A speed=18.5x    frame=32077 fps=444 q=-0.0 size=N/A time=00:22:17.87 bitrate=N/A speed=18.5x    frame=32258 fps=443 q=-0.0 size=N/A time=00:22:25.42 bitrate=N/A speed=18.5x    frame=32444 fps=442 q=-0.0 size=N/A time=00:22:33.18 bitrate=N/A speed=18.5x    frame=32612 fps=442 q=-0.0 size=N/A time=00:22:40.19 bitrate=N/A speed=18.4x    frame=32783 fps=441 q=-0.0 size=N/A time=00:22:47.32 bitrate=N/A speed=18.4x    frame=32948 fps=440 q=-0.0 size=N/A time=00:22:54.20 bitrate=N/A speed=18.3x    frame=33126 fps=439 q=-0.0 size=N/A time=00:23:01.63 bitrate=N/A speed=18.3x    frame=33289 fps=438 q=-0.0 size=N/A time=00:23:08.42 bitrate=N/A speed=18.3x    frame=33442 fps=437 q=-0.0 size=N/A time=00:23:14.81 bitrate=N/A speed=18.2x    frame=33609 fps=437 q=-0.0 size=N/A time=00:23:21.77 bitrate=N/A speed=18.2x    frame=33750 fps=436 q=-0.0 size=N/A time=00:23:27.65 bitrate=N/A speed=18.2x    frame=33911 fps=435 q=-0.0 size=N/A time=00:23:34.37 bitrate=N/A speed=18.1x    [Parsed_psnr_10 @ 000002651d6cef40] PSNR y:47.178600 u:49.911677 v:49.596363 average:47.879264 min:35.488564 max:inf
[out#0/null @ 00000265105867c0] video:14629KiB audio:266276KiB subtitle:0KiB other streams:0KiB global headers:0KiB muxing overhead: unknown
frame=34046 fps=434 q=-0.0 Lsize=N/A time=00:23:40.00 bitrate=N/A speed=18.1x    
